<svg xmlns="http://www.w3.org/2000/svg" width="512" height="512" viewBox="0 0 135.467 135.467"><rect width="136" height="136" x="-.267" y="-.267" ry="10.812" style="color:#000;overflow:visible;fill:#000;stroke-width:.264586;-inkscape-stroke:none;stop-color:#000"/><path fill="#fff" d="M34.728 19.09a.4.4 0 0 0-.12.023c-.084.031-.325.034-.535.005-.21-.028-.412-.028-.45 0s-.208.056-.378.061c-.17.006-.34.041-.378.08-.038.037-.141.068-.229.068-.087 0-.16.031-.16.07 0 .038-.046.069-.103.069-.058 0-.104.028-.104.063s-.068.045-.15.024q-.152-.04-.1.04c.044.072-.038.112-.184.09-.028-.006-.052.039-.052.097s-.053.127-.119.152a1.2 1.2 0 0 0-.31.24c-.104.108-.222.195-.26.195-.04 0-.09.079-.114.174s-.072.173-.106.173c-.092 0-.339.264-.34.364-.001.048-.063.165-.138.26-.074.096-.136.206-.137.246 0 .04-.038.11-.084.155a.4.4 0 0 0-.097.205c-.009.067-.03.185-.049.261a9 9 0 0 0-.081.434c-.027.162-.081.294-.12.294-.042 0-.034.046.018.11.058.07.066.125.02.155-.082.056-.065.444.034.758.057.182.052.225-.028.225-.134 0-.126.048.039.224.157.169.177.262.056.262-.045 0-.022.046.052.103.117.089.121.112.03.178-.08.059-.083.084-.014.112.048.02.181.22.295.443.221.44.244.513.136.447-.038-.024-.07-.018-.07.014 0 .03.07.1.155.153.151.094.152.098.018.147-.125.046-.12.056.053.101.104.028.19.08.19.116s-.03.047-.069.023c-.038-.023-.07-.01-.07.03 0 .041.026.075.057.075.13 0 .353.283.311.393q-.045.115.037.065c.051-.032.081-.001.081.084 0 .074.053.177.117.23.102.081.11.08.057-.01-.053-.088-.045-.09.051-.012.063.05.099.13.08.178-.017.047.032.144.11.215.079.07.116.147.082.169-.033.021.002.102.079.178.137.137.138.137.09.002-.044-.121-.029-.118.127.028a.84.84 0 0 1 .217.384c.042.222.26.422.38.348.036-.023.046.01.02.074-.023.063-.003.14.047.17.073.045.068.08-.024.172-.064.063-.115.095-.115.071s-.033-.023-.073.002c-.05.031-.05.072.001.134.072.087.031.314-.057.314-.025 0-.048.098-.053.216s-.045.239-.092.267c-.047.03-.09.08-.096.115-.007.034-.035.053-.064.044s-.052.09-.052.221-.03.258-.069.282c-.038.023-.07.118-.07.212 0 .104-.04.169-.103.169a.107.107 0 0 0-.105.108c0 .068.033.089.087.056.067-.04.069-.03.007.048-.045.055-.103.217-.13.36-.026.143-.074.26-.106.26-.031 0-.078.14-.104.312s-.074.312-.108.312-.062.092-.062.204-.03.223-.069.247c-.038.024-.069.104-.069.18 0 .075-.047.154-.104.176s-.085.07-.063.105c.022.036.004.109-.041.163-.154.608-.434 1.22-.52 1.757-.175.46-.217.992-.355 1.477a.7.7 0 0 0-.077.233c-.237 1.091-.494 2.047-.681 3.058a2.5 2.5 0 0 1-.095.514c-.036.095-.089.329-.118.52-.03.19-.06.393-.07.45-.01.058-.04.285-.067.505-.086.394-.12.49-.208.834-.075.754-.18 1.459-.24 1.618a27 27 0 0 1-.33 1.744c-.046.518-.03.928-.084 1.366-.08.643-.149 1.186-.154 1.209-.005.022.015.144.045.271.171.333.633.519.942.706.473.245 1.038.435 1.387.625 2.405.737 4.487 1.461 6.488 1.54q.18-.032.386.118c.114.084.244.14.29.123.163-.059.326.092.326.3 0 .973-1.708 1.937-4.022 2.27-.753.108-1.263.131-2.6.12-.916-.009-1.915-.043-2.22-.077a12 12 0 0 0-1.038-.061h-.483l-.054.312c-.03.172-.062.811-.072 1.422l-.017 1.109.45.043 1.041.093c.324.028.683.062.797.075 3.097.114 6.71.462 9.588.504.638.006 1.239.04 1.334.076.096.036.289.084.43.108.177.029.255.078.257.16 0 .066.015.208.033.315.029.176-.022.235-.53.611-.308.229-.828.574-1.155.767a18 18 0 0 0-.768.473c-.257.18-1.772.96-2.178 1.12-.193.076-.516.214-.718.307-.412.178-.88.292-1.23.418a13 13 0 0 1-.936.305c-.134.031-.36.092-.504.135a4 4 0 0 1-.45.11c-.105.018-.41.077-.676.132-.422.087-.93.155-2.08.28-.153.016-.652.048-1.11.07-1.177.055-1.655.103-1.724.171-.17.17.079 3.72.27 3.861.18.133 3.009.042 4.887-.156 1.018.047 1.817-.389 2.819-.408.07.013.195.026.276.03.082.002.168.054.191.115.057.149-.143.555-.357.723-.096.076-.153.137-.127.137.072 0-.306.489-.583.753-.35.335-.902.737-1.33.969l-.37.2-.797-.4c-.855-.43-1.845-.829-2.483-1.003-1.366-.37-1.75-.457-2.486-.557-2.523-.34-4.622-.15-6.918.627-.927.313-2.783 1.21-3.23 1.56a3.4 3.4 0 0 1-.397.27c-.4.21-1.603 1.181-2.201 1.778-.49.49-1.172 1.26-1.32 1.495-.038.06-.204.31-.369.555-.515.766-.864 1.554-1.18 2.664-.499 1.757-.153 3.88.911 5.544 1.009 1.324.564.09.753 1.067l.705.684c.929.9 1.7 1.475 2.577 1.918.216.11.308.187.243.207-.952.16-1.792.253-2.807.4-4.263.678-4.042.762-7.852 1.382 2.301 10.452 4.451 18.873 6.896 27.771 39.154-7.361 82.026-13.697 116.693-19.072-1.001-8.992-1.537-12.044-3.083-26.419-3.71.498-7.442 1.223-11.723 1.808-.902.12-2.241.322-2.546.383l-.362.073-.363.694c-.2.382-.492.833-.649 1.002-.473.508-.706.385-.86-.457a12 12 0 0 0-.177-.798 15 15 0 0 1-.214-1.058c-.115-.683-.115-.728.006-1.131.152-.5.494-.887.973-1.099.548-.242 1.23-.163 1.446.167.214.326.213 1.323 0 2.272-.055.243.022.244.52.003.534-.257 1.347-.862 1.84-1.367.362-.374.601-.712 1.421-2.007.118-.186.214-.406.214-.49s.027-.18.06-.217c.075-.082.384-.933.49-1.349.42-1.655.285-3.364-.37-4.656-.173-.34-.427-.787-.563-.993-.338-.508-1.332-1.482-1.945-1.903-1.003-.69-2.402-1.327-3.443-1.566-.278-.064-.568-.131-.644-.15s-.497-.08-.936-.139c-1.053-.139-2.403-.094-3.519.117-.467.089-.867.143-.89.12-.022-.022-.006-.332.035-.688.278-2.376.632-6.082.786-8.24.104-1.458.1-5.25-.008-6.38-.178-1.873-.319-2.822-.546-3.676-.056-.21-.126-.49-.157-.623-.17-.74-.41-1.339-1.019-2.531-.395-.774-1.325-2.256-1.557-2.481-.161-.157-.25-.485-.14-.521.044-.015.08-.07.08-.125s.026-.098.056-.098c.076 0 .71-.843 1.01-1.341.576-.959.798-2.239.572-3.3-.144-.678-.581-1.546-1.07-2.13-.325-.386-.502-.524-1.007-.784l-.612-.316h-.913c-.826 0-.966.019-1.468.196-1.152.408-2.183 1.083-3.171 2.074l-.536.538-.659-.312c-.362-.171-.685-.312-.717-.312-.033 0-.253-.078-.49-.174-.536-.218-2.672-.865-2.854-.865-.085 0-.146.057-.165.155-.016.086-.098.562-.18 1.058-.342 2.035-1.149 4.32-1.996 5.652-.313.493-.91 1.223-1.441 1.763-.647.659-1.273.883-1.76.63-.226-.116-.585-.546-.662-.792-.089-.285-.086-1.104.006-1.59.11-.584.272-2.16.35-3.41.066-1.079.113-4.281.065-4.533-.026-.14-.105-.281-.18-.322s-.597-.15-1.16-.247l-1.821-.314a52 52 0 0 0-1.04-.172 141 141 0 0 1-1.872-.272c-.387-.055-3.041-.366-3.537-.415a16 16 0 0 1-.832-.106c-.21-.034-.584-.08-.832-.1a60 60 0 0 1-1.7-.171c-.343-.038-.873-.09-1.178-.115a39 39 0 0 1-.728-.066c-.096-.01-.439-.038-.763-.06a19 19 0 0 1-.875-.078 57 57 0 0 0-2.28-.183 51 51 0 0 1-1.04-.066 65 65 0 0 0-2.947-.162c-.829-.027-3.156-.05-4.027-.041l-.316.004-.079.33c-.089.37-.14.782-.19 1.54-.019.286-.07.707-.113.937-.044.23-.09.589-.102.799l-.058 1.005c-.02.344-.054 1.248-.075 2.011-.04 1.46-.097 1.952-.22 1.927-.042-.008-.115.08-.163.195-.742 1.104-1.615-2.066-1.705-2.92-.142-1.638-.605-2.416-.558-4.007.011-.35-.002-.638-.03-.638-.029 0-.043-.164-.033-.364.02-.371-.091-.705-.252-.759-.168-.056-1.6.044-1.723.12-.043.027-.092.63-.171 2.147-.02.381-.05.865-.066 1.075s-.034.693-.04 1.075c-.221 1.489.47 5.942-.385 6.797-.226.21-.346.272-.468.09-2.227-2.467-2.789-6.19-3.135-9.23.01-.139-.015-.27-.057-.29q-.077-.037.018-.08c.08-.036.079-.053 0-.1-.063-.04-.089-.187-.081-.457.009-.301-.023-.445-.13-.594-.134-.19-.156-.196-.566-.157-.235.023-.677.055-.982.071a6 6 0 0 0-.867.105c-.172.042-.41.06-.53.041-.119-.018-.244-.009-.277.023-.047.044-1.09.26-1.828.378-.057.01-.327.085-.6.167-.549.167-.84.126-.906-.128-.02-.075-.063-.12-.097-.099s-.061.01-.061-.022c0-.033-.097-.159-.214-.28-.128-.13-.193-.251-.162-.301q.055-.087-.068-.038c-.07.027-.101.018-.076-.024.053-.085-.103-.241-.242-.241-.057 0-.115-.058-.128-.128-.034-.178-.278-.407-.372-.35q-.072.043-.028-.032c.03-.048.004-.08-.065-.08-.063 0-.13-.058-.148-.13-.019-.07-.149-.189-.289-.262s-.254-.178-.254-.232-.078-.116-.173-.138c-.096-.023-.174-.085-.174-.137s-.086-.12-.19-.147c-.178-.047-.476-.252-.759-.521-.064-.061-.145-.093-.18-.072s-.123-.016-.195-.083c-.175-.162-.573-.358-.728-.358-.068 0-.14-.026-.16-.058s-.24-.114-.49-.181c-.25-.068-.471-.15-.491-.182-.01-.017-.036-.025-.07-.025zm13.346 23.106c.119.006.245.032.405.044.39.052.668.387.851.552.117.235.263.344.31.598.248.416.253.913.332 1.318.03 0 .039.59.018 1.312-.03 1.04-.067 1.4-.176 1.742-.076.237-.137.537-.137.665-.15.502-.431.938-.935 1.164-.256.106-.685.12-.999.03a2 2 0 0 1-.416-.18c-.387-.26-.642-.657-.88-.993-.105-.322-.262-.568-.296-.848.008-.125-.009-.266-.039-.314.009-.144.043-.275.04-.38.016-.137.026-.736.06-.911-.01-.216.033-.362.067-.569 0-.123.026-.24.058-.26.147-.469.214-.988.28-1.307.03-.15.112-.226.147-.348.307-.486.606-1.119.95-1.244a.7.7 0 0 1 .36-.071zm39.162 3.206c.369 0 .864.234 1.136.538.152.169.276.36.276.425s.032.15.07.19c.235.234.13 1.86-.205 3.146-.272 1.048-.301 1.141-.517 1.624-.384.86-.994 1.354-1.532 1.24-.392-.084-.634-.2-.88-.423-.463-.417-.679-.994-.68-1.817 0-.466.059-.848.38-2.434.133-.652.46-1.45.735-1.796.243-.305.924-.693 1.217-.693M66.999 53c.868.005 1.6.02 2.058.046 2.663.08 5.194.483 7.594 1.165.83.21 2.485 1.183 2.781 1.636l.283.425c.102.153.24.46.304.682.2.688.052 1.825-.327 2.525-.454.836-1.532 2.035-2.59 2.88-2.264 1.807-6.388 3.922-9.189 4.713-.789.223-1.93.286-2.635.146-.746-.148-1.509-.402-2.336-.78a3 3 0 0 0-.4-.164c-.08 0-1.784-.98-2.203-1.268-2.024-1.39-3.007-2.185-4.483-3.62-.51-.496-1.105-1.12-1.322-1.387-.434-.535-.836-1.118-.836-1.212a.1.1 0 0 0-.053-.083c-.066-.03-.353-.615-.386-.79a2 2 0 0 0-.072-.256c-.107-.288-.127-.384-.16-.745-.052-.585.247-1.405.7-1.922.188-.215.942-.783 1.04-.783.02 0 .232-.09.472-.199.796-.364 2.46-.717 3.971-.842 1.355-.112 5.185-.183 7.789-.167zm33.77 6.704c.052.025-.068.162-.335.37-.844.655-1.24.988-1.661 1.395-.248.24-.498.434-.555.433s-.225-.066-.373-.144c-.435-.23-1.058-.885-1.155-1.215-.208-.707.114-.908 1.285-.807.774.067 2.448.056 2.68-.018q.087-.027.113-.014m-7.513 5.906c.116-.007.216-.006.281.008.233.05.726.099 1.504.146.407.026.78.07.826.099.068.042.063.19-.022.701-.112.677-.105 1.561.018 2.165.038.187.061.348.05.358s-.144-.05-.297-.132c-.292-.156-1.5-.943-1.559-1.015a8 8 0 0 0-.45-.361 12 12 0 0 1-.92-.814c-.535-.528-.61-.718-.369-.936.103-.093.591-.196.938-.219zM42.57 66.94c.21-.027 1.274.152 1.844.309.303.084.524.13.79.163.077.01.217.038.313.063.242.063 1.92.447 2.67.61.897.196 1.808.4 2.288.512.229.053.944.198 1.589.322 1.387.267 1.566.365 1.566.856 0 .234-.044.346-.201.514-.179.191-.243.215-.572.21-.204-.004-.808-.097-1.342-.207-.793-.164-3.106-.665-3.675-.796-.076-.018-.575-.128-1.11-.244a190 190 0 0 1-1.733-.386 96 96 0 0 0-2.154-.478c-.743-.155-.857-.247-.885-.714-.02-.314-.002-.378.121-.444a.8.8 0 0 0 .213-.17c.039-.052.163-.106.278-.12m47.445 3.441c.61.005.853.215.853.706 0 .187-.057.302-.238.483l-.237.237-.959.043c-1.212.054-2.94.154-4.98.288-.877.057-2.25.123-3.051.145-1.408.04-1.462.036-1.606-.103-.341-.327-.22-.979.213-1.155.128-.052.914-.12 1.947-.169a178 178 0 0 0 3.225-.177c.4-.023 1.102-.07 1.56-.104a75 75 0 0 1 1.63-.103c.439-.022 1.05-.058 1.359-.08a4 4 0 0 1 .284-.01m17.262.557c.611.033.72.422.714 1.543-.012 1.92-.559 3.363-1.274 3.363-.1 0-.254-.07-.34-.157-.086-.086-.259-.406-.383-.71a35 35 0 0 0-.32-.763c-.233-.519-.476-1.542-.474-1.998.004-.774.292-1.045 1.285-1.207.33-.054.589-.083.792-.071m-4.26.756c.7.032.75.087.75.844 0 .302.063.835.142 1.182l.243 1.084c.18.802.148 1.093-.136 1.244a.6.6 0 0 1-.38.04c-.28-.06-.956-.56-1.222-.901-.585-.75-.581-.751-.758.033-.196.864-.094.786-1.263.961-1.694.254-1.92.287-2.174.319a123 123 0 0 0-1.247.172 24 24 0 0 1-1.114.143c-.061 0-.343-.16-.626-.354a16 16 0 0 1-.826-.607c-.59-.48-1.756-1.64-2.091-2.083-.406-.535-.441-.782-.133-.942.286-.147.518-.134 1.74.1 1.609.308 1.777.338 2.529.456l1.109.177c.229.038.619.097.867.132 1.112.156 1.375.209 1.733.347.625.24 1.2.402 1.44.404.123.002.225-.01.225-.024s-.088-.177-.194-.36c-.388-.665-.448-.847-.416-1.278.025-.35.063-.443.266-.653.32-.329.811-.469 1.536-.436zm-66.136.89c.084 0 .225.063.312.138.132.115.153.187.125.436-.03.267-.153.618-.338.969a.6.6 0 0 0-.065.208.5.5 0 0 1-.096.21c-.087.115-.1.112-.205-.05a1 1 0 0 1-.113-.206c0-.018-.093-.191-.206-.384-.114-.192-.184-.35-.157-.35.028-.001.014-.025-.032-.054-.045-.029-.161-.169-.258-.31l-.175-.26.158-.102c.158-.104.762-.244 1.05-.244m15.88.515c.17.006.245.041.334.111a.66.66 0 0 1 .23.761c-.112.344-.424.526-.991.577l-1.652.15c-1.45.131-3.9.32-5.34.412-.777.05-1.705.115-2.08.147-.19.016-.758.05-1.26.076l-.914.047-.214-.214c-.117-.117-.212-.274-.212-.348 0-.337.092-.547.304-.693.257-.176.384-.192 2.539-.328.324-.02.745-.05.936-.066.19-.016.674-.048 1.074-.07 1.36-.078 3.708-.245 4.404-.313.381-.037.912-.085 1.18-.106.266-.022.612-.054.768-.071.462-.052.725-.077.894-.072m27.154 1.707q.226.013.476.1c.568.2 3.686.96 6.731 1.638 2.615.583 3.267.782 3.288 1.002.006.063-2.855.513-3.218.506a2.5 2.5 0 0 1-.486-.092 41 41 0 0 0-1.213-.302c-3.518-.828-6.014-1.466-6.262-1.599-.184-.098-.287-.457-.211-.735.097-.357.447-.545.895-.518m-49.378 7.741c.577 0 .89.116 1.023.382.108.215.226.902.226 1.323 0 .426-.128 1.296-.215 1.457-.036.068-.115.27-.175.451-.146.44-.746 1.445-1.055 1.768-.284.298-.48.327-.69.102-.081-.086-.226-.437-.321-.78a66 66 0 0 0-.454-1.524c-.432-1.39-.388-2.003.186-2.577.409-.41.88-.601 1.475-.602m87.693.375.87 5.348q.58-.99 1.324-1.533a3.9 3.9 0 0 1 1.723-.71q1.73-.281 2.793.634 1.072.915 1.402 2.938l.988 6.078-3.208.522-.16-.99-.594-3.645q-.213-1.31-.355-1.79-.133-.48-.314-.69a1.3 1.3 0 0 0-.586-.399 1.5 1.5 0 0 0-.76-.059q-.998.162-1.442 1.03-.446.86-.224 2.223l.799 4.911-3.191.519-2.255-13.868zm-82.799.05.275.154c.151.085.353.209.448.276s.345.211.555.32l.381.2-.936.15c-1.06.17-2.121.266-1.907.172.127-.056.627-.58 1.025-1.074zm-9.827.482c.613.01.786.132.952.673.15.488.184 2.452.055 3.181-.104.587-.37 1.202-.62 1.437-.18.17-.606.233-.878.129-.208-.08-.513-.543-.907-1.38-.79-1.677-.986-2.294-.929-2.936.045-.508.184-.665.76-.861.568-.194.946-.252 1.567-.243m-5.347.838c1.034.003 1.152.105 1.224 1.052.044.59.18 1.098.589 2.215.351.96.378 1.377.102 1.594-.195.154-.224.158-.545.079-.706-.174-1.66-.996-2.58-2.223-.58-.775-.76-1.257-.652-1.74.138-.614.836-.98 1.862-.977zm90.73 3.766q.78.005 1.67.08l.395 2.424q-1.095-.26-2.083-.32a8.4 8.4 0 0 0-1.835.079q-.909.147-1.317.452-.4.294-.324.766a.66.66 0 0 0 .426.534q.372.15 1.252.108l.575-.011q2.5-.087 3.464.488.963.576 1.21 2.1.26 1.595-.786 2.588t-3.38 1.374q-.99.16-2.077.173a17 17 0 0 1-2.24-.112l-.395-2.424a9.4 9.4 0 0 0 2.065.378q1.045.068 2.078-.1.936-.153 1.367-.488t.347-.843q-.069-.427-.433-.58-.355-.16-1.345-.119l-.574.02q-2.173.08-3.146-.503t-1.212-2.053q-.258-1.587.705-2.53.962-.944 3.208-1.309a14 14 0 0 1 1.876-.168q.248-.006.509-.004zm-29.154.784.87 5.347q.58-.99 1.324-1.532a3.9 3.9 0 0 1 1.723-.71q1.73-.282 2.793.634 1.073.914 1.401 2.937l.99 6.078-3.21.522-.16-.989-.593-3.645q-.213-1.31-.355-1.79-.134-.481-.314-.69a1.3 1.3 0 0 0-.586-.399 1.5 1.5 0 0 0-.76-.06q-.999.163-1.442 1.031-.447.86-.224 2.223l.798 4.91-3.19.52L78.64 89.36zm16.524 1.167q1.668.017 2.868.848 1.68 1.154 2.079 3.614t-.827 4.086q-1.217 1.625-3.793 2.044-2.584.42-4.272-.733-1.68-1.154-2.079-3.613t.827-4.087q1.235-1.628 3.82-2.048a8 8 0 0 1 1.377-.111zm-25.672 1.01q1.53.001 2.589.628 1.546.9 1.885 2.986.34 2.095-.84 3.449-1.17 1.342-3.711 1.756l-2.264.368.75 4.617-3.43.558-2.164-13.307 5.695-.926a9 9 0 0 1 1.49-.128zm25.045 1.349a3 3 0 0 0-.378.033q-1.061.173-1.498 1.031-.429.848-.196 2.282.234 1.435.91 2.111.686.667 1.746.494 1.043-.17 1.472-1.017.427-.855.195-2.29-.234-1.436-.91-2.103a1.8 1.8 0 0 0-1.341-.541m-25.909 1.28a3.4 3.4 0 0 0-.587.046l-1.898.31.604 3.716 1.898-.31q.999-.16 1.464-.731.464-.579.32-1.47t-.768-1.284q-.428-.27-1.033-.278"/></svg>